# xmcd CD database file
#
# Track frame offsets:
#	150
#	16246
#	31113
#	53576
#	65822
#	84897
#	103575
#	119918
#	134281
#	147458
#	158262
#	179512
#
# Disc length: 2617 seconds
#
# Revision: 1
# Processed by: cddbd v1.5.2PL0 Copyright (c) Steve Scherf et al.
# Submitted via: CDex 1.79
#
DISCID=9c0a370c
DTITLE=Byron Berline Band - One-Eyed Jack
DYEAR=2008
DGENRE=Bluegrass
TTITLE0=Free Wheelin'
TTITLE1=Busy "B"
TTITLE2=No Hard Times
TTITLE3=One-Eyed Jack
TTITLE4=Mr. Tambourine Man
TTITLE5=Sweet Georgia Brown
TTITLE6=Cimarron, Roll On
TTITLE7=Goin' Fishin'
TTITLE8=My Window Faces The South
TTITLE9=How Mountain Girls Can Love
TTITLE10=My Sweet Love Ain't Around
TTITLE11=Train 45
EXTD=YEAR: 2008
EXTT0=
EXTT1=
EXTT2=
EXTT3=
EXTT4=
EXTT5=
EXTT6=
EXTT7=
EXTT8=
EXTT9=
EXTT10=
EXTT11=
PLAYORDER=
